<svg width="40" height="40" viewBox="0 0 40 40" fill="none" xmlns="http://www.w3.org/2000/svg">
<path d="M40 20.0001C40 8.95443 31.0457 0.00012207 20 0.00012207C8.95431 0.00012207 0 8.95443 0 20.0001C0 31.0458 8.95431 40.0001 20 40.0001C31.0457 40.0001 40 31.0458 40 20.0001Z" fill="white"/>
<path d="M21.5 21.2751H23.6429L24.5 17.8751H21.5V16.1751C21.5 15.2996 21.5 14.4751 23.2143 14.4751H24.5V11.6191C24.2206 11.5826 23.1654 11.5001 22.0512 11.5001C19.724 11.5001 18.0714 12.9086 18.0714 15.4951V17.8751H15.5V21.2751H18.0714V28.5001H21.5V21.2751Z" fill="#1B67B2"/>
</svg>
